<svg width="92" height="20" viewBox="0 0 92 20" fill="none" xmlns="http://www.w3.org/2000/svg">
<g clip-path="url(#clip0_501_3682)">
<path d="M60.0617 19.4937C66.6423 19.4937 70.5658 15.9241 70.5658 10C70.5658 4.07595 66.6423 0.506329 60.0617 0.506329H52.0633V19.4937H60.0617ZM59.8084 4.4557C63.5797 4.4557 66.1617 6.48103 66.1617 10C66.1617 13.519 63.5797 15.5443 59.8084 15.5443H56.4674V4.4557H59.8084ZM28.7523 10.3544V0.506329H33.1564V9.87344C33.1564 13.3418 34.7763 15.7722 38.2438 15.7722C41.7114 15.7722 43.3313 13.3418 43.3313 9.87344V0.506329H47.7354V10.3544C47.7354 16.481 43.8881 20 38.2438 20C32.5995 20 28.7523 16.481 28.7523 10.3544ZM78.994 11.0379C75.1469 10.3544 73.4258 8.50631 73.4258 5.69621C73.4258 2.65823 75.8305 0 81.7279 0C87.8022 0 90.6371 2.37975 90.6371 5.74682H86.2079C86.2079 4.35443 84.8663 3.59494 81.8797 3.59494C79.0956 3.59494 77.8551 4.17722 77.8551 5.54431C77.8551 6.78482 78.8674 7.34179 81.171 7.77215L84.9674 8.45569C89.8017 9.34179 91.0674 11.5696 91.0674 13.9747C91.0674 17.3418 87.853 19.9494 82.0823 19.9494C76.5643 19.9494 73.0966 17.5443 73.0966 13.7468H77.5264C77.5264 15.1139 79.1715 16.3291 82.1074 16.3291C85.5243 16.3291 86.6633 15.2658 86.6633 14.0759C86.6633 13.0886 85.9797 12.2025 83.4997 11.7722L78.994 11.0379ZM10.1489 20C4.32746 20 0.404297 15.9494 0.404297 9.87344V0.506329H5.71953V6.45569C5.71953 11.2911 9.00994 14.6835 13.6925 14.6835C16.1982 14.6835 18.299 13.7215 19.7164 12.1013C18.8558 16.9114 15.2364 20 10.1489 20ZM12.8066 0.506329V3.03797C12.8066 5.72154 14.6289 7.59492 17.2359 7.59492C18.1725 7.62026 19.1089 7.31646 19.8936 6.78482C19.7417 10.5063 17.3625 12.9114 13.6925 12.9114C9.97173 12.9114 7.49132 10.3291 7.49132 6.48102V0.506329H12.8066ZM17.2359 5.82277C15.6414 5.82277 14.5783 4.70886 14.5783 3.06329V0.506329H19.8936V3.06329C19.8936 4.70886 18.8305 5.82277 17.2359 5.82277Z" fill="#363432"/>
</g>
<defs>
<clipPath id="clip0_501_3682">
<rect width="90.7692" height="20" fill="white" transform="translate(0.404297)"/>
</clipPath>
</defs>
</svg>
