<svg width="53" height="53" viewBox="0 0 53 53" fill="none" xmlns="http://www.w3.org/2000/svg">
<path d="M44.0046 35.1438V11.9241C44.0046 11.8621 43.9809 11.8146 43.9568 11.7893C43.9453 11.7773 43.9348 11.7715 43.9285 11.7688C43.9225 11.7662 43.9184 11.7659 43.9158 11.7659H8.95288C8.95021 11.7659 8.94611 11.7662 8.94019 11.7688C8.93393 11.7715 8.92422 11.7775 8.91284 11.7893C8.88865 11.8146 8.8641 11.862 8.86401 11.9241V35.1438C8.86393 35.9722 8.19239 36.6438 7.36401 36.6438C6.53564 36.6438 5.8641 35.9722 5.86401 35.1438V11.9241C5.86409 11.1067 6.17507 10.3108 6.74683 9.71411C7.32066 9.11528 8.11256 8.76596 8.95288 8.76587H43.9158C44.7562 8.76588 45.5489 9.11517 46.1228 9.71411C46.6944 10.3108 47.0046 11.1068 47.0046 11.9241V35.1438C47.0046 35.9722 46.333 36.6438 45.5046 36.6438C44.6764 36.6436 44.0047 35.9721 44.0046 35.1438Z" fill="black"/>
<path d="M48.6833 41.9497L48.8367 41.9575C49.5929 42.0345 50.1833 42.6731 50.1833 43.4497C50.1833 44.2263 49.5929 44.865 48.8367 44.9419L48.6833 44.9497H4.1853C3.35688 44.9497 2.6853 44.2781 2.6853 43.4497C2.6853 42.6213 3.35688 41.9497 4.1853 41.9497H48.6833Z" fill="black"/>
<path d="M36.0151 43.1534V38.6436H16.853V43.1534C16.853 43.9818 16.1815 44.6534 15.353 44.6534C14.5246 44.6534 13.853 43.9818 13.853 43.1534V37.1436C13.853 36.3152 14.5246 35.6436 15.353 35.6436H37.5151C38.3436 35.6436 39.0151 36.3152 39.0151 37.1436V43.1534C39.0151 43.9818 38.3436 44.6534 37.5151 44.6534C36.6868 44.6533 36.0151 43.9817 36.0151 43.1534Z" fill="black"/>
<path d="M24.9343 19.4484V10.8663C24.9343 10.0379 25.6059 9.36633 26.4343 9.36633C27.2628 9.36633 27.9343 10.0379 27.9343 10.8663V19.4484C27.9343 20.2768 27.2627 20.9484 26.4343 20.9484C25.6059 20.9484 24.9344 20.2768 24.9343 19.4484Z" fill="black"/>
<path d="M26.4343 19.4483C31.673 19.4483 35.9196 23.695 35.9197 28.9337H16.949C16.9491 23.6951 21.1958 19.4484 26.4343 19.4483ZM26.4343 22.4483C23.9354 22.4484 21.7683 23.8627 20.6853 25.9337H32.1833C31.1003 23.8627 28.9333 22.4483 26.4343 22.4483Z" fill="black"/>
</svg>
