<svg width="53" height="53" viewBox="0 0 53 53" fill="none" xmlns="http://www.w3.org/2000/svg">
<path d="M48.9949 22.9285C49.8233 22.9285 50.4949 23.6 50.4949 24.4285C50.4949 25.2569 49.8233 25.9285 48.9949 25.9285H3.64722C2.81879 25.9285 2.14722 25.2569 2.14722 24.4285C2.14722 23.6 2.81879 22.9285 3.64722 22.9285H48.9949Z" fill="black"/>
<path d="M36.1582 42.2433V37.3849C36.1582 36.5565 36.8298 35.8849 37.6582 35.8849C38.4866 35.8849 39.1582 36.5565 39.1582 37.3849V42.2433C39.1582 42.2751 39.1709 42.3059 39.1934 42.3283C39.2157 42.3505 39.2458 42.3634 39.2773 42.3635H44.1367C44.1682 42.3634 44.1984 42.3505 44.2207 42.3283C44.2431 42.3059 44.2559 42.2751 44.2559 42.2433V37.3849C44.2559 36.5566 44.9275 35.885 45.7559 35.8849C46.5843 35.8849 47.2559 36.5565 47.2559 37.3849V42.2433C47.2559 43.0706 46.9276 43.8644 46.3428 44.4494C45.7578 45.0344 44.964 45.3634 44.1367 45.3635H39.2773C38.4502 45.3634 37.6572 45.0343 37.0723 44.4494C36.4872 43.8644 36.1582 43.0707 36.1582 42.2433Z" fill="black"/>
<path d="M5.38623 42.2433V37.3849C5.38623 36.5565 6.0578 35.8849 6.88623 35.8849C7.71466 35.8849 8.38623 36.5565 8.38623 37.3849V42.2433C8.38623 42.2751 8.39896 42.3059 8.42139 42.3283C8.4437 42.3505 8.47387 42.3634 8.50537 42.3635H13.3647C13.3963 42.3634 13.4264 42.3505 13.4487 42.3283C13.4712 42.3059 13.4839 42.2751 13.4839 42.2433V37.3849C13.4839 36.5566 14.1555 35.885 14.9839 35.8849C15.8123 35.8849 16.4839 36.5565 16.4839 37.3849V42.2433C16.4839 43.0706 16.1557 43.8644 15.5708 44.4494C14.9858 45.0344 14.192 45.3634 13.3647 45.3635H8.50537C7.67823 45.3634 6.88521 45.0343 6.30029 44.4494C5.71526 43.8644 5.38623 43.0707 5.38623 42.2433Z" fill="black"/>
<path d="M16.604 29.4067L16.7573 29.4145C17.5137 29.4913 18.104 30.1301 18.104 30.9067C18.104 31.6833 17.5137 32.322 16.7573 32.3989L16.604 32.4067H13.3647C12.5363 32.4067 11.8647 31.7351 11.8647 30.9067C11.8647 30.0783 12.5363 29.4067 13.3647 29.4067H16.604Z" fill="black"/>
<path d="M39.2781 29.4067L39.4314 29.4145C40.1877 29.4913 40.7781 30.1301 40.7781 30.9067C40.7781 31.6833 40.1877 32.322 39.4314 32.3989L39.2781 32.4067H36.0388C35.2104 32.4067 34.5388 31.7351 34.5388 30.9067C34.5388 30.0783 35.2104 29.4067 36.0388 29.4067H39.2781Z" fill="black"/>
<path d="M38.231 8.35236L38.4565 8.36115C38.9819 8.40137 39.4898 8.57428 39.9321 8.86505C40.4375 9.19737 40.8357 9.67005 41.0776 10.2244H41.0767L47.1265 23.8182C47.2119 24.0101 47.2554 24.2184 47.2554 24.4285V37.3846C47.2554 38.213 46.5838 38.8846 45.7554 38.8846H6.88623C6.0578 38.8846 5.38623 38.213 5.38623 37.3846V24.4285C5.38623 24.2184 5.43071 24.0101 5.51611 23.8182L11.5688 10.2147C11.8112 9.66443 12.207 9.19547 12.7095 8.86505C13.2149 8.53273 13.8068 8.35479 14.4116 8.35236H38.231ZM14.3892 11.3572C14.3782 11.3606 14.3676 11.3655 14.3579 11.3719C14.3386 11.3846 14.3232 11.4025 14.314 11.4236L14.3101 11.4334L8.38623 24.7459V35.8846H44.2554V24.7459L38.3325 11.4334L38.3276 11.4236C38.3183 11.4026 38.3029 11.3845 38.2837 11.3719C38.274 11.3655 38.2635 11.3605 38.2524 11.3572L38.2192 11.3524H14.4233L14.3892 11.3572Z" fill="black"/>
</svg>
