<svg width="310" height="114" viewBox="0 0 310 114" fill="none" xmlns="http://www.w3.org/2000/svg">
<path d="M22.2922 113.998V86.2345L33.438 113.998H55.7301L55.7223 26.6584L35.8225 38.3624C34.4962 39.1572 33.438 40.5917 33.438 42.16V71.0914L22.2898 46.3305L2.48015 57.9735C0.848887 58.9338 0 60.339 0 62.258V113.998H22.2922Z" fill="#9D432C"/>
<path d="M78.0237 33.2546V114H100.316L100.321 0.462168L62.7793 22.5441C62.7793 22.5441 69.4719 25.269 73.5695 27.3226C76.1699 28.6257 78.0206 30.3199 78.0237 33.2546Z" fill="#9D432C"/>
<path d="M143.477 79.3027H154.247V75.6777H147.084V72.0297H152.752V68.4807H147.084V64.934H154.247V61.3097H143.477V79.3027Z" fill="#9D432C"/>
<path d="M122.609 79.3027H126.217V64.8588H133.403V79.3027H137.011V61.3097H122.609V79.3027Z" fill="#9D432C"/>
<path d="M267.461 83.0537V75.7561H265.472L258.357 61.1063L251.219 75.7561H249.23V83.0537H252.713V79.302H263.978V83.0537H267.461ZM255.026 75.7561L258.357 68.6098L261.665 75.7561H255.026Z" fill="#9D432C"/>
<path d="M213.336 61.3097H209.729V79.3027H213.336V61.3097Z" fill="#9D432C"/>
<path d="M300.851 70.2564L292.074 61.1071V79.3027H295.682V69.6729L300.827 75.0974L305.999 69.6729V79.3027H309.605V61.1071L300.851 70.2564Z" fill="#9D432C"/>
<path d="M223.409 61.3097H219.801V79.5054L231.241 69.167V79.3027H234.873V61.107L223.409 71.4486V61.3097Z" fill="#9D432C"/>
<path d="M173.918 105.939V95.8034H170.311V113.999L181.751 103.661V113.796H185.382V95.6014L173.918 105.939Z" fill="#9D432C"/>
<path d="M266.458 104.75L257.682 95.6013V113.796H261.286V104.166L266.435 109.588L271.607 104.166V113.796H275.212V95.6013L266.458 104.75Z" fill="#9D432C"/>
<path d="M231.143 95.8023V102.973H223.51V95.8023H219.902V113.795H223.51V106.522H231.143V113.795H234.75V95.8023H231.143Z" fill="#9D432C"/>
<path d="M241.215 95.8023V113.795H251.984V110.171H244.822V106.522H250.491V102.973H244.822V99.4275H251.984V95.8023H241.215Z" fill="#9D432C"/>
<path d="M160.238 95.8023V102.973H152.603V95.8023H148.996V113.795H152.603V106.522H160.238V113.795H163.846V95.8023H160.238Z" fill="#9D432C"/>
<path d="M210.798 95.8023L204.432 104.825V95.8023H200.827V104.825L194.459 95.8023H190.281L196.697 104.901L189.512 113.795H194.01L200.827 105.358V113.795H204.432V105.358L211.247 113.795H215.772L208.559 104.901L215 95.8023H210.798Z" fill="#9D432C"/>
<path d="M228.232 60.3591C227.503 60.3591 226.957 60.1477 226.59 59.7265C226.227 59.3054 226.044 58.7369 226.044 58.0292H223.781C223.781 59.2943 224.19 60.3377 225.012 61.1595C225.832 61.978 226.906 62.3857 228.232 62.3857C229.559 62.3857 230.633 61.978 231.452 61.1595C232.275 60.3377 232.683 59.2943 232.683 58.0292H230.42C230.42 58.7369 230.238 59.3054 229.874 59.7265C229.508 60.1477 228.962 60.3591 228.232 60.3591Z" fill="#9D432C"/>
<path d="M285.052 76.8183C286.819 75.0291 287.699 72.8591 287.699 70.3068C287.699 67.7561 286.819 65.5829 285.052 63.7938C283.289 62.0014 281.162 61.1069 278.673 61.1069C276.169 61.1069 274.039 62.0014 272.283 63.7938C270.524 65.5829 269.646 67.7561 269.646 70.3068C269.646 72.8591 270.524 75.0291 272.283 76.8183C274.039 78.6106 276.169 79.5044 278.673 79.5044C281.162 79.5044 283.289 78.6106 285.052 76.8183ZM273.278 70.3068C273.278 68.7346 273.795 67.4014 274.833 66.3018C275.867 65.2045 277.148 64.6559 278.673 64.6559C280.199 64.6559 281.475 65.2045 282.503 66.3018C283.533 67.4014 284.045 68.7346 284.045 70.3068C284.045 71.8775 283.533 73.213 282.503 74.3103C281.475 75.4075 280.199 75.9561 278.673 75.9561C277.148 75.9561 275.867 75.4075 274.833 74.3103C273.795 73.213 273.278 71.8775 273.278 70.3068Z" fill="#9D432C"/>
<path d="M171.653 67.2918C171.653 65.6023 171.078 64.1837 169.924 63.035C168.773 61.8863 167.327 61.3107 165.584 61.3107H159.939V79.3037H163.547V73.2704H165.584C167.327 73.2704 168.773 72.6973 169.924 71.5493C171.078 70.3998 171.653 68.9812 171.653 67.2918ZM167.412 69.1158C166.94 69.6058 166.313 69.8512 165.537 69.8512H163.547V64.7568H165.537C166.313 64.7568 166.94 64.9967 167.412 65.4788C167.887 65.9618 168.123 66.565 168.123 67.2918C168.123 68.0193 167.887 68.6265 167.412 69.1158Z" fill="#9D432C"/>
<path d="M189.761 74.0059C189.761 72.0465 188.89 70.6278 187.148 69.7491C188.06 68.9218 188.517 67.8404 188.517 66.5056C188.517 65.0703 188.015 63.8456 187.013 62.8299C186.009 61.8166 184.768 61.3107 183.293 61.3107H176.803V79.3037H184.24C185.797 79.3037 187.108 78.801 188.169 77.7948C189.23 76.7902 189.761 75.5275 189.761 74.0059ZM180.41 64.6816H182.92C183.535 64.6816 184.036 64.8756 184.426 65.2619C184.814 65.6514 185.01 66.1241 185.01 66.6838C185.01 67.2569 184.818 67.7351 184.437 68.1143C184.057 68.4943 183.55 68.6843 182.92 68.6843H180.41V64.6816ZM185.606 75.3485C185.208 75.7388 184.678 75.9336 184.015 75.9336H180.41V71.8035H184.015C184.678 71.8035 185.208 71.9974 185.606 72.3838C186.004 72.7741 186.203 73.2704 186.203 73.8792C186.203 74.4706 186.004 74.9598 185.606 75.3485Z" fill="#9D432C"/>
<path d="M205.739 69.4077C204.588 68.3184 203.132 67.7721 201.375 67.7721H198.715V61.3097H195.107V79.3027H201.375C203.132 79.3027 204.588 78.762 205.739 77.6806C206.892 76.6 207.469 75.2233 207.469 73.5505C207.469 71.8777 206.892 70.497 205.739 69.4077ZM203.264 75.2613C202.8 75.6587 202.16 75.8558 201.349 75.8558H198.715V71.1937H201.349C202.16 71.1937 202.8 71.4019 203.264 71.8128C203.728 72.2292 203.961 72.8079 203.961 73.5505C203.961 74.2939 203.728 74.8639 203.264 75.2613Z" fill="#9D432C"/>
<path d="M132.956 104.243C133.869 103.416 134.325 102.331 134.325 101C134.325 99.5636 133.824 98.3375 132.819 97.3231C131.816 96.3097 130.577 95.8041 129.102 95.8041H122.611V113.794H130.047C131.604 113.794 132.914 113.294 133.975 112.289C135.036 111.283 135.569 110.021 135.569 108.499C135.569 106.54 134.697 105.121 132.956 104.243ZM126.216 99.1749H128.728C129.341 99.1749 129.845 99.3688 130.232 99.756C130.622 100.146 130.818 100.618 130.818 101.175C130.818 101.75 130.627 102.227 130.246 102.607C129.863 102.989 129.359 103.177 128.728 103.177H126.216V99.1749ZM131.415 109.844C131.017 110.232 130.487 110.427 129.824 110.427H126.216V106.294H129.824C130.487 106.294 131.017 106.488 131.415 106.878C131.813 107.267 132.012 107.764 132.012 108.372C132.012 108.964 131.813 109.454 131.415 109.844Z" fill="#9D432C"/>
</svg>
