<svg width="53" height="53" viewBox="0 0 53 53" fill="none" xmlns="http://www.w3.org/2000/svg">
<path d="M26.5471 4.5647C27.0654 4.5647 27.5741 4.70081 28.0242 4.95731L28.0251 4.95636L45.1811 14.6059L45.1859 14.6097C45.651 14.8739 46.039 15.2555 46.3094 15.7171C46.5798 16.1787 46.723 16.7039 46.7258 17.2389V36.4771C46.7229 37.0118 46.5796 37.5365 46.3094 37.998C46.039 38.4597 45.6511 38.8421 45.1859 39.1063L45.1811 39.1091L28.0385 48.7501C27.5849 49.0119 27.0709 49.1513 26.5471 49.1513C26.0233 49.1513 25.5084 49.013 25.0548 48.7511V48.7501L7.91409 39.1091L7.90838 39.1063C7.4432 38.8421 7.05617 38.4596 6.7858 37.998C6.51548 37.5364 6.37136 37.0119 6.36841 36.4771V17.2389L6.37603 17.0388C6.4092 16.5736 6.5492 16.121 6.7858 15.7171C7.05613 15.2557 7.4434 14.8739 7.90838 14.6097L7.91409 14.6059L25.0691 4.95636V4.95731C25.5194 4.70049 26.0286 4.56472 26.5471 4.5647ZM26.5185 7.49978C26.5139 7.50247 26.5089 7.50572 26.5042 7.50836L9.354 17.1551L9.33018 17.1732C9.32307 17.1802 9.31718 17.1883 9.31207 17.197C9.3019 17.2144 9.29606 17.2341 9.29587 17.2542V36.4609L9.29968 36.4904C9.30234 36.5003 9.30687 36.5101 9.31207 36.519C9.32208 36.5359 9.33609 36.5501 9.35305 36.56L26.5042 46.2076C26.509 46.2103 26.5138 46.2135 26.5185 46.2162C26.5271 46.2212 26.5372 46.2238 26.5471 46.2239C26.557 46.2239 26.5671 46.2211 26.5757 46.2162L26.59 46.2076L43.7402 36.5609L43.7641 36.5428C43.7713 36.5357 43.7779 36.5278 43.7831 36.519C43.7934 36.5015 43.7983 36.4812 43.7984 36.4609V17.2542C43.7982 17.2341 43.7932 17.2143 43.7831 17.197C43.7729 17.1795 43.7579 17.1651 43.7402 17.1551V17.1541L26.59 7.50836C26.5852 7.50568 26.5804 7.50252 26.5757 7.49978C26.5671 7.49479 26.5571 7.49216 26.5471 7.49216C26.5372 7.49218 26.5271 7.49482 26.5185 7.49978Z" fill="black"/>
<path d="M34.6365 31.6344V22.3613L16.4828 12.3486L16.3551 12.2695C15.7453 11.8473 15.5422 11.0233 15.9081 10.3598C16.2741 9.69643 17.0792 9.42892 17.7616 9.71944L17.8969 9.7852L36.8073 20.2152C37.2739 20.4728 37.5639 20.9639 37.5639 21.4969V31.6344C37.5637 32.4426 36.9083 33.098 36.1002 33.0982C35.2919 33.0982 34.6367 32.4427 34.6365 31.6344Z" fill="black"/>
<path d="M44.3253 15.1743C45.028 14.7755 45.9215 15.0216 46.3207 15.7242C46.72 16.4271 46.4738 17.3213 45.7709 17.7206L27.4457 28.1306C27.001 28.3832 26.4563 28.3853 26.0096 28.1364L7.33365 17.7263L7.20691 17.6463C6.59872 17.2214 6.39863 16.3966 6.7676 15.7347C7.13663 15.0726 7.94366 14.8088 8.6249 15.1029L8.75926 15.1686L26.7157 25.1784L44.3253 15.1743Z" fill="black"/>
<path d="M26.7353 25.394C27.5436 25.4008 28.1934 26.0618 28.1866 26.8702L28.0113 47.6912C28.0042 48.4993 27.3433 49.1493 26.5351 49.1425C25.7269 49.1357 25.0772 48.4746 25.0838 47.6664L25.2591 26.8454C25.266 26.0371 25.9269 25.3873 26.7353 25.394Z" fill="black"/>
</svg>
